<?xml version="1.0" encoding="UTF-8" standalone="no"?><svg xmlns="http://www.w3.org/2000/svg" viewBox="0 0 1001.69 260.93"><defs><style>.cls-1{fill:#fff;}</style></defs><g id="Layer_2" data-name="Layer 2"><g id="Layer_1-2" data-name="Layer 1"><path class="cls-1" d="M401.24.55c3.78.58,7.58,1,11.33,1.77a77.92,77.92,0,0,1,32.71,14.87c.45.34.94.64,1.55,1.06,2.81-2.82,5.52-5.6,8.31-8.31a16.29,16.29,0,0,1,3.07-2.36c1.8-1.08,2.71-1,4.12.58a57.28,57.28,0,0,1,8.5,12.77,3,3,0,0,1-.2,3.15,35.75,35.75,0,0,1-3.14,4.19c-1.72,1.93-3.59,3.73-5.41,5.59,1.82,2.76,3.64,5.36,5.27,8.07A86.82,86.82,0,0,1,479,75.13c2.19,15.67,1.42,31.19-4,46.07-11.09,30.21-32.15,49.59-64.17,55.67-19.72,3.74-39,1.63-57.06-7.77-4.53-2.36-8.64-5.52-12.93-8.31-.38-.25-.74-.52-1-.72-2.21,2.11-4.4,4.12-6.49,6.23-2.8,2.81-5.48,5.72-8.28,8.53-2.56,2.57-5.1,2.5-7.56-.18a38.2,38.2,0,0,1-6.7-9.51c-1.55-3.25-1-6,1.53-8.48,3.62-3.64,7.16-7.36,10.73-11,.48-.51.95-1,1.44-1.58-1.59-2.45-3.17-4.74-4.6-7.13a87,87,0,0,1-11.65-34.8c-1.77-15-.7-29.69,4.24-44,6.82-19.69,19.27-35,36.95-46A77.93,77.93,0,0,1,380.63,1.29c1.54-.2,3.07-.45,4.61-.68ZM373,125.2a4.12,4.12,0,0,0,.47.58,7.81,7.81,0,0,0,1,.65c10.41,5.68,21.32,6.67,32.34,2.43,10.56-4.06,17.43-12.18,22-22.28,3-6.53,3.57-13.48,3.21-20.57a43.13,43.13,0,0,0-3.56-15.25,14,14,0,0,0-.92-1.5ZM413.29,53c-.42-.29-.61-.45-.83-.58a34.43,34.43,0,0,0-15.69-4.73c-8.56-.62-16.46,1.13-23.35,6.33-18.18,13.76-21.83,34.85-14.9,53.68.09.26.35.46.65.83Z"/><path class="cls-1" d="M1001.69,239.36c-1.15,2.87-3,4.79-6.36,4.78a6.1,6.1,0,0,1-6.13-4.7,6.47,6.47,0,0,1,3.56-7.44,6.39,6.39,0,0,1,7.78,2.22c.43.64.76,1.35,1.14,2Z"/><path class="cls-1" d="M887.31,83.62c0,4.78,0,9.11.06,13.44,0,1.11.14,2.21.16,3.31q.35,14.59.68,29.21c.28,12.07.59,24.14.84,36.21a12.55,12.55,0,0,1-.42,3.45,3.75,3.75,0,0,1-3.73,2.88c-.64,0-1.3,0-1.95,0l-38.05.15c-.59,0-1.17,0-1.76,0-2.89-.13-4.52-1.62-4.55-4.49-.06-5.19,0-10.39.09-15.58.08-4.22.36-8.43.51-12.64.41-11.35.9-22.7,1.16-34.06.21-9.34.35-18.7.12-28-.3-12.39-1-24.77-1.5-37.15-.19-4.61-.38-9.21-.51-13.82q-.26-8.46-.4-16.94c-.06-3.79,1.42-5.31,5.26-5.42a169.66,169.66,0,0,0,29.82-3.08c1.39-.29,2.84-.31,4.25-.55,3.15-.53,5.38.79,7.16,3.28s3.63,4.9,5.45,7.35q27,36.47,54.1,72.92c1.35,1.83,2.71,3.65,4.17,5.39.9,1.08,2,2,3.36,3.34a16.82,16.82,0,0,0,.57-2.8c-.08-7.27-.17-14.54-.33-21.8-.07-3.38-.3-6.75-.46-10.12-.47-9.72-1-19.44-1.4-29.16q-.42-9-.7-18.1A17.88,17.88,0,0,1,949.64,7c.45-2.35,1.53-3.18,3.91-3.27,3.12-.11,6.23-.23,9.35-.33l30.81-1c.65,0,1.3,0,1.95,0,2.6,0,3.8.82,4.05,3.45.31,3.15.2,6.34.22,9.52,0,1.62-.12,3.24-.17,4.86q-.5,16-1,32.11c-.12,3.7-.32,7.39-.36,11.09-.14,12-.31,24-.3,36,0,21.82.15,43.64.24,65.46,0,.58,0,1.17,0,1.75-.06,3.42-1.2,4.72-4.52,5.18-.52.07-1,.11-1.56.13-4.28.16-8.57.48-12.86.41-6.3-.1-12.6-.72-18.89-.67-4.54,0-7.28-2.19-9.82-5.54q-22.32-29.52-44.81-58.93c-5.76-7.54-11.64-15-17.47-22.46C888.18,84.48,887.89,84.22,887.31,83.62Z"/><path class="cls-1" d="M124.34,85.46a17.28,17.28,0,0,0,1.5,1.1c7,3.91,11.44,10,14.51,17.26A50.4,50.4,0,0,1,143.91,129a52.46,52.46,0,0,1-10.27,26.91,45.05,45.05,0,0,1-20.11,14.85,89.49,89.49,0,0,1-22.89,5.33c-11.74,1.33-23.51.75-35.27.82-10.73.07-21.46,0-32.18-.28-5.45-.12-10.89-.67-16.34-1a10.23,10.23,0,0,1-1.53-.27c-3.57-.78-4.88-2.11-4.9-5.69,0-5.06.13-10.13.28-15.19.11-3.63.37-7.25.53-10.88.53-12.38,1.22-24.75,1.51-37.14.23-9.92.1-19.85-.1-29.77C2.43,65.46,2,54.3,1.58,43.15,1.16,33,.52,22.81,0,12.63-.2,7.89,1,6.52,5.71,6.31c5.9-.25,11.82-.42,17.73-.46,16.13-.1,32.26-.18,48.39-.15,12,0,23.89,1,35.52,4.09,7,1.9,13.63,4.7,19.18,9.57,7.11,6.23,10.93,14.25,12.63,23.36,1.41,7.53,1.93,15.06-1,22.42A53.24,53.24,0,0,1,129.87,79c-1.19,1.46-2.49,2.83-3.71,4.25C125.57,83.88,125,84.6,124.34,85.46ZM68.43,106.61l-14.73.79c-1.34.08-2.07.59-2.17,2.12a142.91,142.91,0,0,0,.25,24.65,2.09,2.09,0,0,0,2.28,2.11q4.08.19,8.16.49a98.15,98.15,0,0,0,18.85-.67,15.66,15.66,0,0,0,8.59-3.32c3.44-2.93,4.24-6.78,4.12-11-.2-7.27-3.67-12-10.8-13.44C77.6,107.23,72.05,107,68.43,106.61ZM64.55,68.79v.45c2.85-.16,5.71-.23,8.55-.52a28.7,28.7,0,0,0,10.66-2.83,11.85,11.85,0,0,0,2.72-19.12,14.13,14.13,0,0,0-8.32-3.89,125,125,0,0,0-12.79-1c-4.34-.07-8.68.37-13,.57-1.34.07-1.73.79-1.73,2,0,1.55-.14,3.1-.27,4.65a67.23,67.23,0,0,0,.26,16.47c.47,2.86.71,3.15,3.61,3.23C57.67,68.9,61.11,68.8,64.55,68.79Z"/><path class="cls-1" d="M183.58,175.62c-5,0-10,.11-15,0a42.88,42.88,0,0,1-7.16-.69c-3.09-.57-4.37-2.2-4.3-5.31q.42-18.19,1-36.39c.2-6.94.64-13.88.71-20.82.16-15.12.3-30.25.18-45.37-.07-10.71-.46-21.42-.92-32.12-.32-7.58-1-15.14-1.5-22.71-.21-3.05.7-4.55,3.69-5.25a35.47,35.47,0,0,1,6.17-.82c4.8-.26,9.61-.41,14.42-.55q9.36-.3,18.72-.52c11.11-.25,22.23-.63,33.34-.68S255.08,5.76,265.55,10c10.63,4.27,19.65,10.61,25.76,20.53a48.61,48.61,0,0,1,6.81,21.32,79.73,79.73,0,0,1-1.87,26.08,39.65,39.65,0,0,1-10.52,19c-3.23,3.26-6.86,6.14-10.32,9.18-.39.35-.84.62-1.23,1-1.82,1.57-1.83,1.6-.79,3.73,6.59,13.54,13.24,27.05,19.76,40.62,2.56,5.32,4.85,10.77,7.26,16.16.16.36.3.72.43,1.09,1.58,4.32.81,5.59-3.85,6.08-2.45.25-4.92.42-7.39.44-8.91.09-17.82.16-26.73.1-3.18,0-6.34-.49-9.52-.63-2.78-.12-4.38-1.54-5.32-4.06-1.77-4.74-3.56-9.48-5.5-14.15-4.57-11-9.23-22-13.84-33a7.87,7.87,0,0,0-7.54-5.2c-4.16-.11-8.32.05-12.48.05-1.35,0-1.65.81-1.64,1.9,0,3.7-.1,7.41.14,11.1.42,6.66,1.11,13.31,1.6,20,.47,6.27.82,12.55,1.21,18.83a13.53,13.53,0,0,1,0,1.56c-.13,2.2-1,3.21-3.2,3.42-2.65.25-5.32.43-8,.48-5.07.09-10.14.06-15.22.08Zm22.49-92.36c1.18.23,2.05.49,2.93.57,4.14.37,8.28.86,12.43,1,5.6.19,11.19-.12,16.48-2.27,5.66-2.3,9.34-6.34,10.19-12.49a45.43,45.43,0,0,0,.25-8.33c-.44-8.76-5.35-15-13.66-17.42-6.43-1.86-13.07-2.07-19.71-1.89a37.83,37.83,0,0,0-6.16.83,2.64,2.64,0,0,0-2.46,2.59c-.07,2.08-.32,4.15-.33,6.22-.05,6.3,0,12.59,0,18.89C206,75,206.05,79,206.07,83.26Z"/><path class="cls-1" d="M575.15,0a85.42,85.42,0,0,1,39.34,9.11,62.81,62.81,0,0,1,23,19.17c.53.73,1,1.52,1.49,2.28a5.57,5.57,0,0,1,.27,6.09,56.74,56.74,0,0,1-4.64,7.64c-4.47,5.73-9.14,11.3-13.83,16.85a18.55,18.55,0,0,1-3.86,3.24c-2,1.35-3.1,1.2-4.89-.42s-3.72-3.44-5.55-5.19c-6.48-6.17-14-10.33-23-11.52-10.6-1.4-20.56.1-28.91,7.36a39.21,39.21,0,0,0-12.89,22.17c-2.14,10.35-2.08,20.68,1.65,30.68,4.74,12.73,14,20.09,27.47,22.15,11.35,1.73,22.09-.62,32.63-4.58a1.59,1.59,0,0,0,1.1-2c-.89-7.47-1.85-14.93-2.6-22.41-.5-5-.79-10-1-14.94-.12-2.83,1-4.2,3.84-4.37a68.72,68.72,0,0,1,8.36.23c4.15.26,8.29.79,12.44.88,3.7.08,7.4-.26,11.1-.45,4-.21,8-.54,12.07-.67,3.4-.11,5.05,1.4,5,4.77-.08,6.23-.45,12.45-.54,18.68q-.21,13.81-.18,27.63c0,3.44.28,6.87.51,10.31q.79,12.14,1.66,24.26c.3,4.22-1.31,6.11-5.54,5.59a115.81,115.81,0,0,1-12-2.4c-4-.91-7.91-2.07-11.9-3a5.92,5.92,0,0,0-3.18.16A142.59,142.59,0,0,1,594.42,175c-18.73,2.93-37.08,2-54.67-5.77A79.29,79.29,0,0,1,512.39,149a82.49,82.49,0,0,1-19.67-40.87,108,108,0,0,1-1.18-28.5,92.4,92.4,0,0,1,6.2-27.21c7.8-19.24,20.54-34.16,39.17-43.72A77.44,77.44,0,0,1,566.21.57C569.18.32,572.17.19,575.15,0Z"/><path class="cls-1" d="M743.81,148l-22.42.58a14.94,14.94,0,0,1-1.75.15c-2.93-.23-4.17,1.54-4.86,4-1,3.43-1.87,6.88-2.9,10.29-.61,2.05-1.36,4.06-2.16,6-1.11,2.78-3.28,4-6.24,4.13-6.1.22-12.2.62-18.31.72-5.26.09-10.53,0-15.79-.27a35.68,35.68,0,0,1-7.45-1.3c-2.79-.78-3.55-2.25-2.64-5,2.59-8,5.15-15.93,8-23.8C677.83,114.25,688.51,85,699.1,55.71,705,39.43,710.8,23.1,716.66,6.8a42.42,42.42,0,0,1,1.66-3.93A3.54,3.54,0,0,1,721.94.72c3.51.17,7,.2,10.51.56a114.56,114.56,0,0,0,19.07,0c2.92-.19,5.85-.3,8.77-.34a4.83,4.83,0,0,1,4.43,3c1.71,3.42,3.36,6.88,4.78,10.43C781.73,45,794,75.6,806,106.28c7.25,18.48,14.08,37.12,21.07,55.7a48.92,48.92,0,0,1,1.52,4.82c.64,2.4-.08,4.22-2.4,5a21.41,21.41,0,0,1-6.46,1.22c-11.31.16-22.62.17-33.93.16a38.48,38.48,0,0,1-5.22-.61c-3.53-.51-5.49-2.73-6.35-6s-1.64-6.81-2.56-10.19c-.56-2.06-1.33-4.06-2-6.09a2.54,2.54,0,0,0-2.68-1.82c-1.49,0-3-.06-4.48-.05l-18.73.07ZM743,63.94l-.57,0c-1.62,4.57-3.34,9.1-4.84,13.71q-3.95,12.09-7.66,24.27c-.79,2.6-.37,3.12,2.42,3.21,6,.18,11.94.3,17.91.29,4.17,0,5-.91,3.87-4.93-2.49-9.18-5.17-18.32-7.88-27.44C745.32,70,744.08,67,743,63.94Z"/><path class="cls-1" d="M252.05,216.25l-246.63,1c-4,0-3.48.2-3.52-3.4q0-5,0-9.93c0-1.9,0-1.92,2-2H5.43L498.49,200c3.88,0,3.51-.43,3.54,3.57,0,3.24,0,6.49,0,9.73,0,1.85-.12,1.94-2,2-.65,0-1.3,0-2,0Z"/><path class="cls-1" d="M2,242.52c0-2.8,0-5.19,0-7.59,0-1.88,0-3.76,0-5.64s.09-1.93,2-2c.46,0,.91,0,1.37,0l493.51-2c3.63,0,3.25-.09,3.27,3.28s0,6.5,0,9.74c0,2.09-.08,2.14-2.23,2.19h-1.36L5.65,242.5Z"/><path class="cls-1" d="M835.08,238.85a8,8,0,0,0-.84.68c-6.56,7-21.32,6.67-26.87-5.19a27.37,27.37,0,0,1-.79-22.14c4.86-12.64,20.69-13.62,27.95-6.26.35.35.75.66,1.26,1.1.2-.71.34-1.25.5-1.79a5,5,0,0,1,5.29-3.95c2.62,0,4,1,4.72,3.49a20,20,0,0,1,.68,4.8c.1,10.32.19,20.64.1,31a37.26,37.26,0,0,1-1.06,8.27,13.65,13.65,0,0,1-9.75,10.47,33,33,0,0,1-20.69-.05,20.29,20.29,0,0,1-5.93-3.25,11.27,11.27,0,0,1-3-4.18,4.65,4.65,0,0,1,1.7-5.85,5.31,5.31,0,0,1,6.2.23,10.05,10.05,0,0,1,2,2.08c2.77,3.94,6.73,4.5,11.09,4,.45,0,.89-.16,1.34-.24,3.23-.56,5.38-2.37,5.92-5.62.41-2.45.44-5,.63-7.44Zm.95-15.63-.3-.09c-.09-1-.11-2.08-.29-3.09a21.72,21.72,0,0,0-.85-3.38c-1.54-4.28-5-6.68-9.13-6.5s-7.19,2.81-8.37,7.19a19.94,19.94,0,0,0,0,10.94c1.19,4.13,4.19,6.67,8.15,7a9,9,0,0,0,9-5.55A43.64,43.64,0,0,0,836,223.22Z"/><path class="cls-1" d="M545.21,246c-5.68-.06-11.15-.92-16-4.21-5.63-3.87-8.9-9.38-10.51-15.88-2.12-8.57-1.84-17.05,2.24-25,4.66-9.13,12.47-13.64,22.58-14.27a25.82,25.82,0,0,1,19.61,6.55c3.15,2.84,5.54,6.23,5.66,10.71a5.34,5.34,0,0,1-3.64,5.4,5.2,5.2,0,0,1-6.16-2.11,38.7,38.7,0,0,1-2.13-3.49c-2.85-5-7-7.58-12.83-7.13a13.13,13.13,0,0,0-11.91,9,30.91,30.91,0,0,0-.41,21.18c3.11,9.49,12.48,10.82,18.81,8.25a12.51,12.51,0,0,0,6.76-6.94c.5-1.12.87-2.31,1.4-3.42,1.38-2.88,3.74-4,6.49-3.16a5.66,5.66,0,0,1,3.92,6.39,19.94,19.94,0,0,1-8.33,13.56A24.64,24.64,0,0,1,545.21,246Z"/><path class="cls-1" d="M907.06,244.52c-6.37-.06-12.43-1.16-17.53-5.35a26.81,26.81,0,0,1-9.07-15.08c-2-8.53-1.7-16.93,2.39-24.83,4.68-9,12.45-13.5,22.47-14.13a25.88,25.88,0,0,1,19.62,6.52c3.16,2.84,5.55,6.22,5.69,10.7a5.36,5.36,0,0,1-3.6,5.43,5.19,5.19,0,0,1-6.16-2.07,36.48,36.48,0,0,1-2.14-3.48c-2.84-4.95-7-7.61-12.81-7.17s-9.95,3.66-12,9.1a31,31,0,0,0-.44,20.81c3,9.45,12,11,18.5,8.65a12.43,12.43,0,0,0,7.14-7.07c.53-1.18.92-2.43,1.49-3.59,1.36-2.77,3.68-3.85,6.37-3a5.64,5.64,0,0,1,4,6.35,19.88,19.88,0,0,1-8.3,13.58A24.62,24.62,0,0,1,907.06,244.52Z"/><path class="cls-1" d="M695.63,206.34c.45-.36.91-.7,1.35-1.07,4.62-3.87,9.92-4.71,15.56-3.08,5.34,1.54,8.25,5.42,9.25,10.75a31.8,31.8,0,0,1,.41,5.43c.07,6.49.08,13,.09,19.47a12.8,12.8,0,0,1-.25,2.7c-.75,3.35-3,5-6.35,4.69-2.88-.26-4.75-2.33-4.84-5.61-.12-3.7,0-7.4-.11-11.1s-.13-7.52-.39-11.27c-.16-2.44-.75-4.88-3.3-6a7.88,7.88,0,0,0-8.12,1.08,9,9,0,0,0-3.61,7.63c-.05,5.65,0,11.3-.06,16.95a23.92,23.92,0,0,1-.29,3.68,5.32,5.32,0,0,1-5.51,4.76c-3.09,0-5-1.47-5.57-4.58a16.87,16.87,0,0,1-.32-3.09q-.12-22-.17-44a15.33,15.33,0,0,1,.29-3.09,5.24,5.24,0,0,1,5.78-4.62,5.1,5.1,0,0,1,5.3,4.93c.31,4.26.27,8.55.37,12.83,0,.82,0,1.65,0,2.47Z"/><path class="cls-1" d="M643.81,223.66a21.07,21.07,0,0,1-2.06,10.58,19,19,0,0,1-14.69,11c-7,1.19-13.47.17-19.06-4.52a19.05,19.05,0,0,1-6-9.36A26.13,26.13,0,0,1,602,216a19.77,19.77,0,0,1,18.17-14.15c5-.28,9.74.37,14.07,3,6,3.67,8.89,9.25,9.58,16.09C643.88,221.83,643.81,222.75,643.81,223.66Zm-31.25,0a16,16,0,0,0,2,8.74,9.15,9.15,0,0,0,15,1,13.12,13.12,0,0,0,2.56-6.83c.46-4.27.23-8.46-2.27-12.15a9.14,9.14,0,0,0-15.46.77A16,16,0,0,0,612.56,223.69Z"/><path class="cls-1" d="M982.59,222.41a72.27,72.27,0,0,1-1.46,7.79,18.31,18.31,0,0,1-13.25,13.09c-7.72,2.13-15.09,1.35-21.51-4a18.73,18.73,0,0,1-6-9.37,26.13,26.13,0,0,1,0-15.34,19.78,19.78,0,0,1,18.19-14.12,25,25,0,0,1,10.74,1.42c8,3.18,12,9.34,12.88,17.71.09.89,0,1.81,0,2.72Zm-11.88,1.06c0-5-.85-8.14-2.45-10.42-3.79-5.41-12.29-5.11-15.34.72a17.73,17.73,0,0,0,.11,17.34c3,5.59,11.1,6,15,.92A14.39,14.39,0,0,0,970.71,223.47Z"/><path class="cls-1" d="M767.87,207c.6-.54,1-.88,1.35-1.22,4.71-4.49,10.29-5.63,16.43-4a12.35,12.35,0,0,1,9.51,11.54c.36,8.36.34,16.73.45,25.1a8.42,8.42,0,0,1-.29,1.92,5.37,5.37,0,0,1-5.69,4.56,5.57,5.57,0,0,1-5.36-4.77,26.38,26.38,0,0,1-.32-4.07c-.06-5.58-.05-11.17-.13-16.75a27.71,27.71,0,0,0-.44-4.05c-.74-4.46-4.23-5.53-7.87-4.74-4,.88-6.69,4.22-6.81,8.63-.17,6.17-.17,12.33-.29,18.5a13.28,13.28,0,0,1-.44,3.63,5.23,5.23,0,0,1-5.17,3.72,5.18,5.18,0,0,1-5.26-3.56,10.69,10.69,0,0,1-.61-3.41q-.13-15.1-.14-30.19a10.49,10.49,0,0,1,.3-2.5c.63-2.62,2.26-4,4.73-4.14a5.27,5.27,0,0,1,5.5,3.77C767.5,205.58,767.63,206.14,767.87,207Z"/><path class="cls-1" d="M666.8,202.82c1.52,0,2.76-.07,4,0a4.24,4.24,0,0,1,3.91,2.47,3.62,3.62,0,0,1-2.22,5.19,43.09,43.09,0,0,1-5.53,1,7.09,7.09,0,0,0-.22,1.32c0,6.55,0,13.11.12,19.66,0,3.36,1.24,4.24,4.58,3.62.7-.13,1.41-.23,2.11-.35a4.14,4.14,0,0,1,3.11,7.56A17,17,0,0,1,671,245.2a25.7,25.7,0,0,1-7.17,0c-5.42-.84-8.16-3.84-8.39-9.34-.3-7.26-.32-14.53-.45-21.79,0-.83,0-1.66,0-2.59-3-.42-6.09-.78-5.91-4.63.15-3.42,2.94-3.83,5.74-4.12.05-.87.09-1.63.12-2.39.1-2.59.06-5.2.31-7.77a5.3,5.3,0,0,1,5.55-4.91,5.51,5.51,0,0,1,5.52,5c.22,2.52.24,5.05.35,7.58C666.69,201,666.74,201.74,666.8,202.82Z"/><path class="cls-1" d="M580,216.09c0-7.47-.07-14.93-.07-22.4a12.68,12.68,0,0,1,.31-3.08,5.2,5.2,0,0,1,5.33-4.24,5.34,5.34,0,0,1,5.48,4.08,11.08,11.08,0,0,1,.37,2.87q.12,22.69.17,45.39a11.11,11.11,0,0,1-.5,3.44,5.33,5.33,0,0,1-5.25,3.62,5.24,5.24,0,0,1-5.14-3.47,11.61,11.61,0,0,1-.58-3.61C580,231.15,580,223.62,580,216.09Z"/><path class="cls-1" d="M745.3,223.11c0,5,.07,10,0,15a11.31,11.31,0,0,1-.51,3.43,5.39,5.39,0,0,1-5.26,3.62,5.31,5.31,0,0,1-5.21-3.66,9.88,9.88,0,0,1-.49-3.05q-.12-15.19-.14-30.38a10.25,10.25,0,0,1,0-1.36c.38-3.34,2.65-5.42,5.81-5.36a5.66,5.66,0,0,1,5.61,5.6c.12,1.88.06,3.76.07,5.65C745.28,216.1,745.29,219.61,745.3,223.11Z"/><path class="cls-1" d="M739.38,197.23c-3.41,0-5.73-2.27-5.71-5.55a5.64,5.64,0,0,1,5.83-5.53,5.54,5.54,0,1,1-.12,11.08Z"/></g></g></svg>